<?xml version="1.0" encoding="UTF-8" standalone="no"?>
<!-- Created with Inkscape (http://www.inkscape.org/) -->

<svg
   width="210mm"
   height="297mm"
   viewBox="0 0 210 297"
   version="1.1"
   id="svg5"
   xmlns="http://www.w3.org/2000/svg"
   xmlns:svg="http://www.w3.org/2000/svg">
  <defs
     id="defs2">
    <clipPath
       clipPathUnits="userSpaceOnUse"
       id="clipPath5750">
      <circle
         style="display:inline;fill:#efedff;fill-opacity:1;stroke-width:0.264583"
         id="circle5752"
         cx="102.71346"
         cy="125.53441"
         r="71.854836" />
    </clipPath>
    <clipPath
       clipPathUnits="userSpaceOnUse"
       id="clipPath5754">
      <circle
         style="display:inline;fill:#efedff;fill-opacity:1;stroke-width:0.264583"
         id="circle5756"
         cx="102.71346"
         cy="125.53441"
         r="71.854836" />
    </clipPath>
  </defs>
  <g
     id="layer1"
     style="display:inline">
    <g
       id="g5476"
       style="display:inline"
       transform="translate(1.058333,-12.435417)">
      <path
         style="fill:#efedff;fill-opacity:1;stroke-width:0.402887"
         d="M 39.032256,45.774193 30.789099,126.32258 78.419355,76.985161 Z"
         id="path5472" />
      <path
         style="display:inline;fill:#271592;fill-opacity:1;stroke-width:0.241742"
         d="M 42.244218,55.53226 38.813904,109.11291 73.669968,79.980562 Z"
         id="path5474" />
    </g>
    <g
       id="g5488"
       style="display:inline"
       transform="matrix(-1,0,0,0.99671522,204.19387,-12.284835)">
      <path
         style="fill:#efedff;fill-opacity:1;stroke-width:0.402887"
         d="M 39.032256,45.774193 30.789099,126.32258 78.419355,76.985161 Z"
         id="path5484" />
      <path
         style="display:inline;fill:#271592;fill-opacity:1;stroke-width:0.241742"
         d="M 42.244218,55.53226 38.813904,109.11291 73.669968,79.980562 Z"
         id="path5486" />
    </g>
    <circle
       style="display:inline;fill:#efedff;fill-opacity:1;stroke-width:0.264583"
       id="path111"
       cx="102.71346"
       cy="125.53441"
       r="71.854836" />
    <g
       id="g5497"
       style="display:inline">
      <path
         id="path5406-3"
         style="display:inline;fill:#271592;stroke-width:0.170667"
         d="m 92.036705,133.69878 c -15.59009,2.22041 -24.42811,-2.02746 -30.40346,-6.2017 -12.37534,-8.64513 -15.02243,-24.33184 -14.41988,-26.60454 3.86721,-1.272177 17.21549,2.46295 24.98723,7.20214 5.94573,3.62572 12.53385,10.99851 19.83608,25.60441 z" />
      <path
         id="path5493"
         style="display:inline;fill:#271592;stroke-width:0.169214"
         d="m 114.74027,132.63987 c 15.26742,2.60347 24.05577,-1.4256 30.02903,-5.4515 12.37103,-8.33793 15.35201,-23.95472 14.81485,-26.24156 -3.76972,-1.366982 -16.97811,2.03848 -24.73045,6.58494 -5.93089,3.47829 -12.58374,10.68669 -20.1134,25.10844 z" />
    </g>
    <rect
       style="fill:#271592;fill-opacity:1;stroke-width:0.264583"
       id="rect5559"
       width="8.2020836"
       height="69.585419"
       x="73.025002"
       y="129.11667"
       clip-path="url(#clipPath5754)" />
    <rect
       style="display:inline;fill:#271592;fill-opacity:1;stroke-width:0.269566"
       id="rect5559-3"
       width="8.2020836"
       height="72.231255"
       x="57.282291"
       y="118.66563"
       clip-path="url(#clipPath5750)" />
    <text
       xml:space="preserve"
       style="font-style:normal;font-variant:normal;font-weight:normal;font-stretch:normal;font-size:13.7615px;font-family:Arial;-inkscape-font-specification:Arial;fill:#271592;fill-opacity:1;stroke-width:0.286696"
       x="121.87636"
       y="147.23941"
       id="text5637"><tspan
         id="tspan5635"
         style="font-style:normal;font-variant:normal;font-weight:normal;font-stretch:normal;font-size:13.7615px;font-family:Arial;-inkscape-font-specification:Arial;stroke-width:0.286696"
         x="121.87636"
         y="147.23941">014</tspan></text>
    <path
       id="path5689"
       style="fill:#271592;stroke-width:0.163989"
       d="m 110.30839,80.637517 c 4.34832,4.980366 3.83594,12.542758 -1.14443,16.891075 -4.98037,4.348328 -12.54276,3.835948 -16.891076,-1.144427 -2.174157,-2.490183 -3.133142,-5.625872 -2.926041,-8.682557 0.103551,-1.528342 0.498622,-3.036933 1.17908,-4.435207 -0.375213,4.748152 6.664248,11.110343 11.866297,6.56848 5.20204,-4.541862 0.2755,-12.259007 -4.846065,-12.697784 1.477279,-0.485628 3.025385,-0.673606 4.553715,-0.57005 3.05668,0.207106 6.03437,1.580286 8.20852,4.07047 z" />
  </g>
</svg>
